<?xml version="1.0" encoding="UTF-8"?>
<!DOCTYPE svg PUBLIC "-//W3C//DTD SVG 1.1//EN" "http://www.w3.org/Graphics/SVG/1.1/DTD/svg11.dtd">
<!-- Creator: CorelDRAW 2018 (64 Bit) -->
<svg xmlns="http://www.w3.org/2000/svg" xml:space="preserve" width="7.9372mm" height="6.35mm" version="1.1" style="shape-rendering:geometricPrecision; text-rendering:geometricPrecision; image-rendering:optimizeQuality; fill-rule:evenodd; clip-rule:evenodd"
viewBox="0 0 1.2298 0.9839"
 xmlns:xlink="http://www.w3.org/1999/xlink">
 <defs>
  <style type="text/css">
   <![CDATA[
    .fil0 {fill:black}
   ]]>
  </style>
 </defs>
 <g id="Camada_x0020_1">
  <metadata id="CorelCorpID_0Corel-Layer"/>
  <path class="fil0" d="M0.4612 0.1845c-0.0509,0 -0.0922,-0.0413 -0.0922,-0.0922 0,-0.0509 0.0413,-0.0922 0.0922,-0.0922 0.0509,0 0.0922,0.0413 0.0922,0.0922 0,0.0509 -0.0413,0.0922 -0.0922,0.0922zm-0.0523 0.123l0.1188 -0.0938c0.0332,-0.0261 0.0801,-0.0265 0.1136,-0.0006l0.1597 0.1234c0.059,0.0457 0.0548,0.1361 -0.0083,0.176l-0.1163 0.0738 0 0.2131c0,0.034 -0.0275,0.0615 -0.0615,0.0615 -0.034,0 -0.0615,-0.0275 -0.0615,-0.0615l0 -0.246c0,-0.0206 0.0102,-0.0398 0.0273,-0.0511l0.0822 -0.0548 -0.1159 -0.0932 -0.0782 0.0626c-0.011,0.0086 -0.0244,0.0134 -0.0384,0.0134l-0.123 0c-0.034,0 -0.0615,-0.0275 -0.0615,-0.0615 0,-0.034 0.0275,-0.0615 0.0615,-0.0615l0.1015 0zm0.4366 0.4304c0,0.0765 0.0619,0.1384 0.1384,0.1384 0.0765,0 0.1383,-0.0619 0.1383,-0.1384 0,-0.0765 -0.0619,-0.1384 -0.1383,-0.1384 -0.0765,0 -0.1384,0.0619 -0.1384,0.1384zm-0.1076 0c0,-0.1359 0.1101,-0.246 0.246,-0.246 0.1359,0 0.246,0.1101 0.246,0.246 0,0.1359 -0.1101,0.246 -0.246,0.246 -0.1359,0 -0.246,-0.1101 -0.246,-0.246zm-0.6303 0c0,0.0765 0.0619,0.1384 0.1383,0.1384 0.0765,0 0.1384,-0.0619 0.1384,-0.1384 0,-0.0765 -0.0619,-0.1384 -0.1384,-0.1384 -0.0765,0 -0.1383,0.0619 -0.1383,0.1384zm-0.1076 0c0,-0.1359 0.1101,-0.246 0.246,-0.246 0.1359,0 0.246,0.1101 0.246,0.246 0,0.1359 -0.1101,0.246 -0.246,0.246 -0.1359,0 -0.246,-0.1101 -0.246,-0.246z"/>
 </g>
</svg>
